<?xml version="1.0" standalone="no"?>
<!DOCTYPE svg PUBLIC "-//W3C//DTD SVG 20010904//EN"
 "http://www.w3.org/TR/2001/REC-SVG-20010904/DTD/svg10.dtd">
<svg version="1.0" xmlns="http://www.w3.org/2000/svg"
 width="640.000000pt" height="640.000000pt" viewBox="0 0 640.000000 640.000000"
 preserveAspectRatio="xMidYMid meet">
<metadata>
Created by potrace 1.11, written by Peter Selinger 2001-2013
</metadata>
<g transform="translate(0.000000,640.000000) scale(0.100000,-0.100000)"
fill="#000000" stroke="none">
<path d="M3327 6189 c-10 -6 -97 -12 -195 -15 -383 -10 -1011 -89 -1307 -165
-22 -6 -67 -17 -100 -25 -139 -35 -267 -71 -300 -85 -11 -5 -49 -18 -85 -29
-36 -11 -74 -24 -85 -29 -11 -5 -45 -19 -75 -31 -113 -45 -164 -70 -315 -150
-333 -177 -606 -428 -743 -682 -39 -73 -79 -175 -93 -237 -6 -28 -15 -53 -20
-57 -5 -3 -9 -144 -9 -331 0 -352 5 -395 57 -498 14 -27 36 -84 50 -125 39
-119 70 -167 118 -180 29 -8 48 -8 68 -1 16 6 33 11 38 11 6 0 8 -44 6 -107
-6 -204 15 -408 54 -538 46 -150 77 -211 158 -313 28 -34 51 -64 51 -66 0 -1
-18 -11 -39 -21 -24 -10 -46 -30 -57 -51 l-19 -34 30 -26 c27 -23 36 -25 87
-20 l56 6 61 -77 c47 -59 58 -79 50 -90 -6 -7 -20 -13 -31 -13 -28 0 -78 -38
-78 -59 0 -20 98 -215 157 -311 21 -36 42 -72 46 -80 4 -8 18 -35 32 -59 14
-24 25 -55 25 -68 0 -19 10 -28 45 -44 39 -17 45 -24 45 -49 0 -30 1 -30 54
-30 48 0 58 -4 97 -39 42 -37 43 -40 30 -64 -11 -21 -12 -29 -1 -42 7 -8 18
-15 26 -15 21 0 28 -22 10 -32 -16 -9 -24 -87 -9 -102 13 -13 43 -121 43 -158
0 -66 46 -80 172 -52 26 6 29 2 59 -60 37 -78 71 -106 128 -106 34 0 46 -6 68
-32 16 -18 50 -56 78 -86 81 -88 219 -155 308 -151 44 3 46 2 128 -85 89 -95
120 -116 171 -116 27 -1 38 -8 60 -40 27 -38 30 -40 81 -40 59 0 127 27 151
61 14 21 14 21 68 -18 91 -66 157 -90 293 -110 124 -18 331 -8 565 27 114 17
117 18 155 51 44 39 47 80 9 120 -26 28 -25 49 2 49 9 0 30 -16 48 -35 39 -41
84 -46 144 -16 69 35 85 70 58 132 -5 12 1 19 23 27 34 12 88 -4 126 -38 27
-24 83 -31 128 -15 61 21 77 41 77 97 0 46 3 51 59 106 32 31 78 84 103 117
24 34 54 72 67 85 12 14 27 34 32 45 5 11 29 56 54 100 107 193 175 355 175
418 0 9 12 36 27 60 59 92 100 192 128 312 9 39 23 83 31 98 12 22 13 31 4 42
-8 10 -10 38 -6 92 10 116 -37 627 -64 697 -5 15 -20 28 -35 32 -32 8 -32 14
6 50 57 53 135 168 169 249 32 76 34 87 35 200 0 121 -17 203 -52 246 -7 8
-13 19 -13 23 0 17 -84 117 -154 183 -51 49 -76 80 -76 95 0 17 -11 28 -42 43
-42 20 -43 22 -49 80 -12 114 -29 240 -39 288 -6 26 -10 71 -10 99 0 28 -5 80
-11 115 -16 91 -13 93 132 93 108 0 194 11 319 42 25 6 63 14 85 18 22 4 54
13 70 18 17 6 77 25 135 43 58 17 112 35 120 39 9 4 31 11 50 15 19 4 41 11
50 15 29 15 259 83 385 113 122 30 156 37 212 42 32 3 77 8 101 11 l42 5 0
214 0 213 -72 70 c-40 39 -91 83 -113 98 -22 14 -42 30 -45 33 -17 24 -229
137 -355 190 -44 18 -94 40 -112 47 -17 8 -37 14 -45 14 -8 0 -18 4 -24 8 -8
7 -34 16 -179 59 -27 9 -68 21 -90 28 -22 7 -76 20 -120 30 -44 10 -100 24
-124 31 -25 8 -55 14 -67 14 -13 0 -33 4 -46 9 -13 5 -77 19 -143 31 -66 12
-140 25 -165 30 -265 52 -723 98 -1060 106 -135 3 -249 10 -254 15 -13 12 -36
11 -59 -2z m-352 -189 c-3 -5 -13 -10 -21 -10 -8 0 -12 5 -9 10 3 6 13 10 21
10 8 0 12 -4 9 -10z m745 5 c0 -8 -92 -47 -97 -41 -4 3 -1 6 5 6 7 0 12 5 12
10 0 6 -96 10 -269 10 -169 0 -272 -4 -276 -10 -3 -5 -14 -10 -23 -10 -11 0
-7 6 13 19 28 18 50 20 333 20 166 0 302 -2 302 -4z m-946 -24 c6 -10 -63 -26
-71 -17 -3 3 0 8 8 10 8 2 21 7 29 9 23 8 28 8 34 -2z m1056 0 c0 -10 -30 -24
-37 -17 -3 3 -2 9 2 15 8 13 35 15 35 2z m146 -1 c24 0 44 -4 44 -9 0 -15 -51
-23 -66 -10 -8 7 -28 8 -54 4 -22 -4 -40 -4 -40 -1 0 10 44 25 58 20 8 -2 34
-4 58 -4z m-1301 -10 c-3 -5 -19 -10 -35 -10 -16 0 -32 5 -35 10 -4 6 10 10
35 10 25 0 39 -4 35 -10z m245 0 c0 -5 -7 -10 -15 -10 -8 0 -15 5 -15 10 0 6
7 10 15 10 8 0 15 -4 15 -10z m138 -22 c-5 -16 -48 -24 -48 -10 0 11 17 20 38
21 8 1 12 -5 10 -11z m1256 -9 c-3 -5 -26 -7 -52 -5 -69 6 -72 8 -17 15 55 7
78 4 69 -10z m-1804 2 c0 -5 -36 -9 -81 -10 -53 -1 -78 2 -74 9 8 12 155 14
155 1z m1095 -1 c-3 -5 -13 -10 -21 -10 -8 0 -14 5 -14 10 0 6 9 10 21 10 11
0 17 -4 14 -10z m175 0 c0 -5 -4 -10 -10 -10 -5 0 -10 5 -10 10 0 6 5 10 10
10 6 0 10 -4 10 -10z m170 0 c0 -13 -28 -25 -38 -16 -3 4 0 11 8 16 20 13 30
12 30 0z m225 0 c-3 -5 -15 -10 -26 -10 -11 0 -17 5 -14 10 3 6 15 10 26 10
11 0 17 -4 14 -10z m-1887 -20 c6 0 12 -7 12 -16 0 -11 -5 -14 -16 -10 -9 3
-34 9 -57 13 -38 6 -40 7 -17 14 14 4 34 6 45 3 11 -2 26 -4 33 -4z m387 0
c-3 -5 -10 -10 -16 -10 -5 0 -9 5 -9 10 0 6 7 10 16 10 8 0 12 -4 9 -10z
m1830 1 l30 -3 -30 -9 c-30 -9 -122 -2 -129 10 -4 6 64 7 129 2z m-1765 -10
c0 -5 12 -12 26 -15 19 -5 24 -10 17 -17 -7 -7 -17 -7 -29 -1 -11 6 -27 13
-36 16 -24 7 -23 26 2 26 11 0 20 -4 20 -9z m90 -1 c0 -5 -4 -10 -10 -10 -5 0
-10 5 -10 10 0 6 5 10 10 10 6 0 10 -4 10 -10z m170 0 c0 -12 -28 -25 -36 -17
-9 9 6 27 22 27 8 0 14 -5 14 -10z m330 0 c0 -5 -9 -10 -19 -10 -11 0 -23 5
-26 10 -4 6 5 10 19 10 14 0 26 -4 26 -10z m220 1 c0 -12 -29 -23 -41 -15 -5
3 -7 10 -4 15 8 12 45 12 45 0z m200 -1 c0 -5 -2 -10 -4 -10 -3 0 -8 5 -11 10
-3 6 -1 10 4 10 6 0 11 -4 11 -10z m337 4 c-3 -3 -12 -4 -19 -1 -8 3 -5 6 6 6
11 1 17 -2 13 -5z m-1547 -13 c0 -14 -18 -23 -30 -16 -6 4 -8 11 -5 16 8 12
35 12 35 0z m1347 3 c-3 -3 -12 -4 -19 -1 -8 3 -5 6 6 6 11 1 17 -2 13 -5z
m-1727 -19 c0 -8 -21 -12 -70 -11 -65 0 -79 4 -65 18 3 3 35 6 70 6 45 0 65
-4 65 -13z m1234 9 c20 -8 11 -24 -15 -24 -19 0 -25 11 -12 23 8 8 8 8 27 1z
m284 -6 c-6 -18 -28 -21 -28 -4 0 9 7 16 16 16 9 0 14 -5 12 -12z m367 2 c-3
-5 -15 -10 -26 -10 -10 0 -19 5 -19 10 0 6 12 10 26 10 14 0 23 -4 19 -10z
m630 0 c14 -5 24 -14 20 -20 -4 -6 -15 -5 -30 2 -18 8 -31 8 -49 0 -19 -8 -27
-8 -36 3 -11 13 -6 16 57 24 6 0 24 -3 38 -9z m-2035 -27 c0 -20 -24 -11 -28
10 -2 12 1 15 12 11 9 -3 16 -13 16 -21z m480 17 c0 -5 -5 -10 -11 -10 -5 0
-7 5 -4 10 3 6 8 10 11 10 2 0 4 -4 4 -10z m1245 0 c4 -6 -10 -10 -34 -10 -23
0 -41 5 -41 10 0 6 15 10 34 10 19 0 38 -4 41 -10z m-1985 -10 c0 -5 -11 -10
-25 -10 -14 0 -25 5 -25 10 0 6 11 10 25 10 14 0 25 -4 25 -10z m820 -4 c0 -8
-9 -17 -20 -21 -11 -3 -27 -19 -37 -36 -9 -16 -21 -29 -25 -29 -15 0 -8 21 16
44 12 13 26 31 29 40 8 20 37 21 37 2z m270 10 c0 -2 -8 -10 -17 -17 -16 -13
-17 -12 -4 4 13 16 21 21 21 13z m312 -28 c-15 -15 -26 -4 -18 18 5 13 9 15
18 6 9 -9 9 -15 0 -24z m721 25 c-7 -2 -19 -2 -25 0 -7 3 -2 5 12 5 14 0 19
-2 13 -5z m-2593 -13 c12 -8 9 -10 -13 -10 -16 0 -26 4 -22 10 8 12 16 12 35
0z m83 -4 c9 -7 17 -17 17 -22 0 -4 -5 -3 -12 4 -7 7 -20 12 -30 12 -10 0 -18
5 -18 10 0 14 22 12 43 -4z m224 8 c-3 -3 -12 -4 -19 -1 -8 3 -5 6 6 6 11 1
17 -2 13 -5z m278 -4 c-3 -5 -13 -10 -21 -10 -8 0 -14 5 -14 10 0 6 9 10 21
10 11 0 17 -4 14 -10z m405 0 c0 -5 -7 -10 -16 -10 -8 0 -12 5 -9 10 3 6 10
10 16 10 5 0 9 -4 9 -10z m725 0 c3 -5 -1 -10 -9 -10 -9 0 -16 5 -16 10 0 6 4
10 9 10 6 0 13 -4 16 -10z m355 1 c0 -5 -7 -12 -16 -15 -22 -9 -24 -8 -24 9 0
8 9 15 20 15 11 0 20 -4 20 -9z m845 -1 c17 -7 15 -9 -11 -9 -17 -1 -47 -4
-65 -7 -32 -6 -33 -6 -14 9 22 18 59 20 90 7z m-380 -10 c-3 -5 -15 -10 -26
-10 -10 0 -19 5 -19 10 0 6 12 10 26 10 14 0 23 -4 19 -10z m125 0 c0 -5 -9
-10 -20 -10 -11 0 -20 5 -20 10 0 6 9 10 20 10 11 0 20 -4 20 -10z m-2631 -41
c-20 -12 -30 0 -18 23 11 20 12 20 21 3 8 -12 7 -20 -3 -26z m336 31 c3 -5 -1
-10 -10 -10 -9 0 -13 5 -10 10 3 6 8 10 10 10 2 0 7 -4 10 -10z m445 -5 c-7
-8 -18 -15 -24 -15 -6 0 -2 7 8 15 25 19 32 19 16 0z m-919 -12 c12 -15 12
-16 -4 -10 -10 4 -25 7 -33 7 -8 0 -14 5 -14 10 0 16 36 11 51 -7z m630 -6
c-13 -13 -26 -3 -16 12 3 6 11 8 17 5 6 -4 6 -10 -1 -17z m417 11 c-2 -6 -10
-14 -16 -16 -7 -2 -10 2 -6 12 7 18 28 22 22 4z m432 2 c0 -5 -9 -10 -20 -10
-11 0 -20 5 -20 10 0 6 9 10 20 10 11 0 20 -4 20 -10z m305 1 c-6 -5 -21 -12
-35 -16 -22 -7 -23 -6 -11 9 7 9 23 16 34 16 13 0 17 -4 12 -9z m129 3 c18 -7
12 -24 -10 -24 -8 0 -14 7 -14 15 0 17 2 18 24 9z m206 -4 c0 -5 -9 -10 -20
-10 -11 0 -20 5 -20 10 0 6 9 10 20 10 11 0 20 -4 20 -10z m1054 4 c22 -9 20
-24 -3 -24 -26 0 -51 10 -51 21 0 10 31 12 54 3z m-2835 -13 c8 -5 9 -11 3
-15 -13 -8 -42 3 -42 15 0 11 21 11 39 0z m2371 -1 c0 -5 -7 -10 -15 -10 -8 0
-15 5 -15 10 0 6 7 10 15 10 8 0 15 -4 15 -10z m-2135 -12 c30 -13 33 -28 5
-28 -11 0 -20 6 -20 14 0 8 -8 17 -17 19 -10 3 -13 5 -6 6 7 0 24 -4 38 -11z
m240 2 c-3 -5 -10 -10 -16 -10 -5 0 -9 5 -9 10 0 6 7 10 16 10 8 0 12 -4 9
-10z m1395 -6 c0 -9 -7 -14 -17 -12 -25 5 -28 28 -4 28 12 0 21 -6 21 -16z
m685 6 c3 -5 -1 -10 -10 -10 -9 0 -13 5 -10 10 3 6 8 10 10 10 2 0 7 -4 10
-10z m-2995 -10 c0 -5 -14 -10 -31 -10 -17 0 -28 4 -24 10 3 6 17 10 31 10 13
0 24 -4 24 -10z m1550 -16 l25 -27 -35 8 c-43 9 -42 8 -34 29 8 22 15 20 44
-10z m90 16 c0 -5 -12 -10 -26 -10 -14 0 -23 4 -19 10 3 6 15 10 26 10 10 0
19 -4 19 -10z m315 0 c11 0 15 -3 10 -9 -13 -11 -75 -2 -75 11 0 6 10 8 23 4
12 -3 31 -6 42 -6z m209 -4 c23 -12 24 -15 11 -26 -10 -9 -15 -9 -15 -1 0 6
-9 11 -20 11 -11 0 -20 7 -20 15 0 19 10 19 44 1z m359 7 c-7 -2 -21 -2 -30 0
-10 3 -4 5 12 5 17 0 24 -2 18 -5z m92 -3 c-3 -5 -15 -10 -26 -10 -10 0 -19 5
-19 10 0 6 12 10 26 10 14 0 23 -4 19 -10z m-2415 -4 c0 -2 -7 -6 -15 -10 -8
-3 -15 -1 -15 4 0 6 7 10 15 10 8 0 15 -2 15 -4z m400 -6 c0 -5 11 -12 25 -16
46 -11 26 -21 -37 -19 -35 2 -76 4 -93 4 -26 1 -27 3 -12 12 10 6 31 8 46 4
20 -4 33 -1 43 9 15 18 28 20 28 6z m2592 -2 c-8 -8 -17 -8 -34 0 -22 10 -21
11 12 11 26 1 31 -2 22 -11z m-3276 -9 c3 -6 0 -16 -7 -21 -10 -7 -3 -7 21 -2
57 11 134 12 148 1 9 -7 18 -5 30 7 20 18 38 21 46 7 5 -7 -58 -52 -124 -89
-14 -7 -34 -21 -45 -30 -51 -43 -65 -46 -238 -46 -92 -1 -167 1 -167 4 0 7 51
30 66 30 6 0 17 7 24 15 14 17 64 42 95 47 14 2 20 11 20 28 0 22 4 25 34 22
22 -2 31 0 26 7 -3 6 4 15 17 20 32 13 46 13 54 0z m1274 1 c0 -13 -11 -13
-30 0 -12 8 -11 10 8 10 12 0 22 -4 22 -10z m1507 4 c-3 -3 -12 -4 -19 -1 -8
3 -5 6 6 6 11 1 17 -2 13 -5z m403 -15 c0 -12 -37 -12 -44 0 -7 11 14 20 32
13 6 -2 12 -8 12 -13z m-2800 1 c0 -5 -4 -10 -9 -10 -6 0 -13 5 -16 10 -3 6 1
10 9 10 9 0 16 -4 16 -10z m500 -5 c-7 -8 -19 -15 -27 -15 -13 0 -13 3 -3 15
7 8 19 15 27 15 13 0 13 -3 3 -15z m305 1 l27 -14 -36 1 c-22 1 -36 6 -36 14
0 17 11 16 45 -1z m995 10 c0 -3 -4 -8 -10 -11 -5 -3 -10 -1 -10 4 0 6 5 11
10 11 6 0 10 -2 10 -4z m248 -13 c-4 -22 -22 -20 -26 1 -2 10 3 16 13 16 10 0
15 -7 13 -17z m692 13 c0 -3 -4 -8 -10 -11 -5 -3 -10 -1 -10 4 0 6 5 11 10 11
6 0 10 -2 10 -4z m450 -6 c0 -5 -23 -10 -51 -10 -31 0 -48 4 -44 10 3 6 26 10
51 10 24 0 44 -4 44 -10z m-3060 -4 c0 -9 -30 -14 -35 -6 -4 6 3 10 14 10 12
0 21 -2 21 -4z m420 -6 c0 -5 -5 -10 -11 -10 -5 0 -7 5 -4 10 3 6 8 10 11 10
2 0 4 -4 4 -10z m80 0 c0 -5 -7 -10 -15 -10 -8 0 -15 5 -15 10 0 6 7 10 15 10
8 0 15 -4 15 -10z m1693 3 c-7 -2 -19 -2 -25 0 -7 3 -2 5 12 5 14 0 19 -2 13
-5z m327 -3 c0 -13 -20 -13 -40 0 -12 8 -9 10 13 10 15 0 27 -4 27 -10z
m-1670 -10 c0 -5 -4 -10 -9 -10 -6 0 -13 5 -16 10 -3 6 1 10 9 10 9 0 16 -4
16 -10z m420 -11 c0 -5 -7 -9 -15 -9 -9 0 -12 6 -9 15 6 15 24 11 24 -6z
m1900 0 c0 -11 -12 -11 -35 -3 -12 5 -14 9 -4 14 14 9 39 2 39 -11z m-2556 -4
c3 -8 16 -15 28 -15 13 0 30 -5 38 -10 11 -7 5 -10 -23 -10 -24 0 -40 5 -43
15 -4 8 -12 15 -20 15 -8 0 -14 5 -14 10 0 16 27 12 34 -5z m769 8 c-7 -2 -19
-2 -25 0 -7 3 -2 5 12 5 14 0 19 -2 13 -5z m327 -21 c28 -13 38 -21 25 -21
-11 0 -29 6 -39 14 -11 8 -34 15 -50 15 -17 0 -38 5 -46 10 -28 19 63 4 110
-18z m420 18 c0 -5 -12 -10 -27 -9 -25 0 -26 1 -8 9 27 12 35 12 35 0z m445 0
c4 -6 -5 -10 -19 -10 -14 0 -26 5 -26 10 0 6 9 10 19 10 11 0 23 -4 26 -10z
m320 0 c-28 -12 -65 -12 -65 0 0 6 19 10 43 9 32 0 37 -2 22 -9z m-3053 -19
c12 -11 18 -26 15 -35 -4 -9 1 -20 11 -25 14 -8 15 -13 5 -30 -18 -28 -16 -32
10 -30 38 3 58 -1 52 -10 -3 -6 -24 -10 -48 -9 -30 0 -47 6 -58 20 -15 20 -16
20 -67 2 -42 -15 -56 -16 -72 -7 -12 8 -37 11 -67 7 l-48 -6 35 25 c19 15 40
30 46 35 6 5 20 13 32 16 12 4 22 12 22 17 0 5 6 9 14 9 7 0 19 6 26 14 10 13
23 18 63 25 4 0 17 -8 29 -18z m68 9 c0 -5 -4 -10 -10 -10 -5 0 -10 5 -10 10
0 6 5 10 10 10 6 0 10 -4 10 -10z m1157 4 c-3 -3 -12 -4 -19 -1 -8 3 -5 6 6 6
11 1 17 -2 13 -5z m273 -4 c0 -5 -7 -10 -16 -10 -8 0 -12 5 -9 10 3 6 10 10
16 10 5 0 9 -4 9 -10z m-605 -10 c-3 -5 -10 -10 -16 -10 -5 0 -9 5 -9 10 0 6
7 10 16 10 8 0 12 -4 9 -10z m293 -8 c2 -7 -6 -12 -17 -12 -21 0 -27 11 -14
24 9 9 26 2 31 -12z m1741 9 c12 -8 9 -11 -12 -17 -32 -7 -49 3 -27 16 19 12
21 12 39 1z m-1539 -17 c0 -14 -3 -14 -15 -4 -8 7 -15 14 -15 16 0 2 7 4 15 4
8 0 15 -7 15 -16z m160 6 c0 -5 -5 -10 -11 -10 -5 0 -7 5 -4 10 3 6 8 10 11
10 2 0 4 -4 4 -10z m655 0 c3 -5 -1 -10 -10 -10 -9 0 -13 5 -10 10 3 6 8 10
10 10 2 0 7 -4 10 -10z m260 0 c8 -13 -25 -13 -45 0 -12 8 -9 10 12 10 15 0
30 -4 33 -10z m95 0 c0 -5 -4 -10 -9 -10 -6 0 -13 5 -16 10 -3 6 1 10 9 10 9
0 16 -4 16 -10z m866 1 c-3 -5 -15 -7 -26 -4 -28 7 -25 13 6 13 14 0 23 -4 20
-9z m-4046 -6 c0 -2 -21 -16 -47 -30 -27 -14 -61 -34 -78 -45 -32 -20 -85 -26
-85 -10 0 6 8 13 18 17 15 5 58 23 142 61 27 11 50 15 50 7z m859 -14 c9 -6
10 -11 2 -15 -14 -9 -51 2 -51 15 0 11 30 12 49 0z m202 -1 c18 0 18 -1 2 -20
-15 -17 -19 -18 -33 -5 -9 8 -23 15 -31 15 -12 0 -11 2 1 10 8 5 21 8 28 5 8
-3 22 -5 33 -5z m886 -17 c-8 -7 -37 9 -31 19 3 5 12 4 20 -3 8 -6 13 -14 11
-16z m373 17 c11 -7 6 -10 -20 -10 -26 0 -31 3 -20 10 8 5 17 10 20 10 3 0 12
-5 20 -10z m300 0 c0 -14 -24 -23 -47 -17 -15 3 -14 6 7 15 32 14 40 14 40 2z
m125 0 c3 -5 1 -10 -4 -10 -6 0 -11 5 -11 10 0 6 2 10 4 10 3 0 8 -4 11 -10z
m483 -2 c-3 -7 -15 -14 -29 -16 -23 -2 -23 -2 -5 13 24 18 39 20 34 3z m252 3
c0 -17 -26 -30 -48 -24 -40 10 -23 25 36 32 6 0 12 -3 12 -8z m636 -1 c15 -6
24 -13 22 -16 -8 -8 -58 7 -58 17 0 11 3 11 36 -1z m-2566 -10 c0 -5 -7 -10
-15 -10 -8 0 -15 5 -15 10 0 6 7 10 15 10 8 0 15 -4 15 -10z m55 0 c-3 -5 -10
-10 -16 -10 -5 0 -9 5 -9 10 0 6 7 10 16 10 8 0 12 -4 9 -10z m145 0 c0 -5 -9
-10 -21 -10 -11 0 -17 5 -14 10 3 6 13 10 21 10 8 0 14 -4 14 -10z m380 0 c0
-5 -7 -10 -16 -10 -8 0 -12 5 -9 10 3 6 10 10 16 10 5 0 9 -4 9 -10z m872 -2
c-8 -8 -17 -8 -34 0 -22 10 -21 11 12 11 26 1 31 -2 22 -11z m-297 -18 c-19
-21 -55 -27 -55 -10 0 6 11 10 25 10 14 0 25 5 25 10 0 6 5 10 12 10 6 0 3 -9
-7 -20z m-1899 -5 c19 -14 19 -14 -1 -14 -11 0 -29 6 -39 14 -20 15 -20 15 0
15 11 0 29 -7 40 -15z m184 5 c0 -5 -7 -10 -15 -10 -8 0 -15 5 -15 10 0 6 7
10 15 10 8 0 15 -4 15 -10z m300 0 c12 -8 9 -10 -13 -10 -16 0 -26 4 -22 10 8
12 16 12 35 0z m967 -7 c3 -7 -4 -9 -16 -6 -12 3 -18 9 -15 15 7 11 26 6 31
-9z m137 11 c9 -3 13 -10 10 -15 -8 -14 -40 -11 -54 6 -10 12 -9 15 8 15 11 0
27 -3 36 -6z m516 -4 c12 -8 11 -10 -7 -10 -13 0 -23 5 -23 10 0 13 11 13 30
0z m-1780 -10 c0 -5 -4 -10 -9 -10 -6 0 -13 5 -16 10 -3 6 1 10 9 10 9 0 16
-4 16 -10z m520 0 c0 -5 -6 -10 -14 -10 -8 0 -18 5 -21 10 -3 6 3 10 14 10 12
0 21 -4 21 -10z m440 1 c0 -11 -26 -22 -34 -14 -12 12 -5 23 14 23 11 0 20 -4
20 -9z m855 -1 c3 -5 1 -10 -4 -10 -6 0 -11 5 -11 10 0 6 2 10 4 10 3 0 8 -4
11 -10z m176 -6 c-18 -8 -36 -13 -39 -10 -6 7 37 25 58 25 8 -1 0 -7 -19 -15z
m1076 10 c-3 -3 -12 -4 -19 -1 -8 3 -5 6 6 6 11 1 17 -2 13 -5z m-587 -14 c0
-5 -4 -10 -10 -10 -5 0 -10 5 -10 10 0 6 5 10 10 10 6 0 10 -4 10 -10z m-2850
-22 c0 -13 -32 -6 -37 9 -3 7 3 9 16 6 12 -3 21 -10 21 -15z m178 10 c-6 -18
-28 -21 -28 -4 0 9 7 16 16 16 9 0 14 -5 12 -12z m317 -10 c14 -12 25 -25 25
-29 0 -10 -69 33 -70 44 0 14 20 7 45 -15z m179 16 c9 -3 16 -13 16 -22 0 -12
-3 -13 -12 -4 -7 7 -24 12 -39 12 -15 0 -31 5 -34 10 -7 11 43 14 69 4z m381
-4 c-3 -5 -10 -10 -16 -10 -5 0 -9 5 -9 10 0 6 7 10 16 10 8 0 12 -4 9 -10z
m385 0 c0 -5 -5 -10 -11 -10 -5 0 -7 5 -4 10 3 6 8 10 11 10 2 0 4 -4 4 -10z
m1130 1 c0 -10 -24 -21 -46 -21 -20 0 -17 18 4 23 29 8 42 7 42 -2z m190 0 c0
-14 -18 -23 -30 -16 -6 4 -8 11 -5 16 8 12 35 12 35 0z m-1504 -26 c-16 -13
-33 -22 -38 -19 -11 7 32 43 52 44 9 0 4 -9 -14 -25z m449 11 c-19 -14 -45
-11 -45 5 0 5 14 9 32 9 30 0 30 -1 13 -14z m385 0 c0 -8 -8 -21 -18 -28 -10
-7 -21 -21 -25 -30 -3 -10 -14 -18 -23 -18 -12 0 -8 8 15 32 17 18 29 38 27
45 -3 7 1 13 9 13 8 0 15 -6 15 -14z m1430 4 c0 -5 -7 -10 -16 -10 -8 0 -12 5
-9 10 3 6 10 10 16 10 5 0 9 -4 9 -10z m-3086 -31 c-3 -5 -10 -7 -15 -3 -5 3
-7 10 -3 15 3 5 10 7 15 3 5 -3 7 -10 3 -15z m356 11 c21 -13 10 -18 -27 -13
-18 3 -30 9 -27 14 7 12 35 11 54 -1z m610 0 c0 -5 -7 -10 -15 -10 -8 0 -15 5
-15 10 0 6 7 10 15 10 8 0 15 -4 15 -10z m410 1 c0 -19 -22 -23 -38 -7 -15 15
-14 16 11 16 15 0 27 -4 27 -9z m655 0 c3 -5 -9 -17 -26 -25 -38 -19 -39 -19
-39 -6 0 6 7 10 15 10 9 0 18 7 21 15 7 17 20 20 29 6z m134 -12 c-11 -11 -23
-18 -26 -15 -7 7 20 35 35 36 7 0 3 -9 -9 -21z m-1498 -8 c21 -13 27 -21 18
-26 -7 -5 -17 -1 -24 8 -7 10 -22 17 -34 17 -11 0 -21 5 -21 10 0 16 27 12 61
-9z m1248 6 c6 -8 8 -16 5 -20 -10 -9 -34 4 -34 19 0 18 14 18 29 1z m1221 9
c0 -11 -19 -15 -25 -6 -3 5 1 10 9 10 9 0 16 -2 16 -4z m-2080 -16 c0 -5 -7
-10 -15 -10 -8 0 -15 5 -15 10 0 6 7 10 15 10 8 0 15 -4 15 -10z m232 -19 c-9
-2 -22 -10 -28 -19 -6 -8 -16 -12 -23 -8 -8 5 -1 15 21 30 22 15 35 19 40 12
4 -6 0 -13 -10 -15z m1638 19 c0 -5 -9 -10 -20 -10 -11 0 -20 5 -20 10 0 6 9
10 20 10 11 0 20 -4 20 -10z m-3275 -14 c15 -8 22 -17 16 -20 -6 -4 -21 2 -33
13 -26 24 -21 26 17 7z m1109 -7 c-3 -5 -10 -7 -15 -3 -5 3 -7 10 -3 15 3 5
10 7 15 3 5 -3 7 -10 3 -15z m1405 -10 c23 5 43 6 46 2 2 -4 19 -5 37 -3 28 4
31 3 20 -10 -9 -12 -29 -14 -89 -11 -109 6 -123 10 -123 34 l0 21 34 -21 c29
-18 41 -20 75 -12z m1048 25 c-3 -3 -12 -4 -19 -1 -8 3 -5 6 6 6 11 1 17 -2
13 -5z m-3027 -14 c0 -5 -4 -10 -10 -10 -5 0 -10 5 -10 10 0 6 5 10 10 10 6 0
10 -4 10 -10z m2210 0 c0 -5 -4 -10 -9 -10 -6 0 -13 5 -16 10 -3 6 1 10 9 10
9 0 16 -4 16 -10z m-3400 -9 c0 -5 -13 -14 -29 -21 -16 -6 -32 -18 -35 -26 -3
-8 -11 -14 -18 -14 -7 0 -27 -12 -43 -27 l-30 -28 -172 0 c-95 0 -173 2 -173
5 0 3 32 26 71 53 66 44 92 53 145 48 12 -1 32 3 45 8 30 12 239 14 239 2z
m1045 -1 c3 -5 -1 -10 -9 -10 -9 0 -16 5 -16 10 0 6 4 10 9 10 6 0 13 -4 16
-10z m483 -8 c4 -14 -34 -16 -42 -3 -6 10 13 21 28 17 6 -1 12 -8 14 -14z
m1172 8 c0 -5 -5 -10 -11 -10 -5 0 -7 5 -4 10 3 6 8 10 11 10 2 0 4 -4 4 -10z
m150 0 c12 -8 9 -10 -12 -10 -16 0 -28 5 -28 10 0 13 20 13 40 0z m1192 -2
c-17 -8 -26 -8 -34 0 -9 9 -4 12 23 11 32 0 33 -1 11 -11z m128 2 c0 -5 -4
-10 -9 -10 -6 0 -13 5 -16 10 -3 6 1 10 9 10 9 0 16 -4 16 -10z m102 -18 c-19
-6 -44 6 -37 18 4 7 14 6 28 -2 14 -7 17 -13 9 -16z m-4117 9 c3 -5 20 -7 39
-4 47 7 52 -11 8 -33 -20 -10 -43 -25 -50 -31 -7 -7 -20 -13 -28 -13 -8 0 -14
-4 -14 -10 0 -5 -9 -10 -19 -10 -11 0 -22 -4 -26 -9 -14 -23 -64 -38 -114 -33
-58 5 -64 15 -21 37 17 9 30 20 30 25 0 6 7 10 15 10 9 0 18 7 21 15 4 8 12
15 19 15 6 0 20 9 30 19 9 11 34 22 54 24 20 2 39 4 43 5 4 1 9 -2 13 -7z
m440 -1 c-3 -5 -13 -10 -21 -10 -8 0 -14 -4 -14 -10 0 -5 -5 -10 -12 -10 -6 0
-3 9 7 20 18 20 51 28 40 10z m171 -38 c-20 -20 -39 -33 -43 -29 -8 9 59 77
70 70 4 -2 -8 -21 -27 -41z m1150 27 c3 -5 -2 -12 -11 -16 -15 -5 -34 10 -35
29 0 9 39 -2 46 -13z m614 12 c0 -9 -62 -22 -70 -14 -8 7 24 23 48 23 12 0 22
-4 22 -9z m-1278 -22 c-13 -11 -30 -19 -40 -16 -12 2 -7 8 18 19 46 22 47 21
22 -3z m1718 11 c0 -5 -7 -10 -16 -10 -8 0 -12 5 -9 10 3 6 10 10 16 10 5 0 9
-4 9 -10z m65 0 c3 -5 -1 -10 -10 -10 -9 0 -13 5 -10 10 3 6 8 10 10 10 2 0 7
-4 10 -10z m-3619 -33 c-84 -69 -305 -296 -356 -364 -50 -70 -54 -73 -92 -71
-45 2 -61 -10 -56 -43 2 -18 8 -23 26 -21 27 4 28 -6 5 -47 -20 -34 -38 -38
-67 -16 -11 8 -28 15 -38 15 -22 0 -22 7 3 45 10 17 23 39 28 50 5 11 30 46
55 77 35 43 50 56 63 51 15 -6 16 -4 5 9 -11 13 -3 25 51 77 67 65 197 167
235 184 12 6 22 14 22 19 0 4 6 8 14 8 7 0 19 7 26 15 7 8 20 15 30 15 10 0
23 7 30 15 7 8 22 15 34 15 18 -1 15 -5 -18 -33z m992 16 c-6 -7 -21 -13 -34
-13 -15 0 -24 -6 -24 -15 0 -9 -9 -15 -24 -15 -13 0 -31 -11 -42 -25 -13 -17
-22 -21 -30 -14 -8 7 -14 6 -17 -3 -4 -8 -6 -7 -6 4 -1 26 116 98 156 95 24
-1 29 -5 21 -14z m1790 5 c-5 -15 -48 -24 -48 -10 0 14 12 22 33 22 10 0 17
-5 15 -12z m212 -8 c23 -23 23 -23 -18 -9 -18 6 -29 15 -26 20 8 14 22 11 44
-11z m488 10 c7 0 10 -4 7 -10 -3 -6 -51 -10 -107 -10 -56 0 -98 3 -94 8 9 8
132 21 161 16 11 -2 26 -4 33 -4z m-1988 -4 c0 -3 -4 -8 -10 -11 -5 -3 -10 -1
-10 4 0 6 5 11 10 11 6 0 10 -2 10 -4z m505 -7 c11 -17 0 -20 -21 -4 -17 13
-17 14 -2 15 9 0 20 -5 23 -11z m170 1 c-27 -12 -35 -12 -35 0 0 6 12 10 28 9
24 0 25 -1 7 -9z m250 0 c-3 -5 -13 -10 -21 -10 -8 0 -14 5 -14 10 0 6 9 10
21 10 11 0 17 -4 14 -10z m1500 1 c3 -5 1 -13 -5 -16 -15 -9 -43 3 -35 15 8
13 32 13 40 1z m205 -1 c0 -5 -13 -10 -30 -10 -16 0 -30 5 -30 10 0 6 14 10
30 10 17 0 30 -4 30 -10z m790 1 c0 -5 9 -11 20 -14 11 -3 20 -10 20 -16 0 -6
-18 -1 -40 10 -45 24 -49 29 -20 29 11 0 20 -4 20 -9z m-3703 -27 c-9 -9 -28
6 -21 18 4 6 10 6 17 -1 6 -6 8 -13 4 -17z m-97 1 c0 -9 -9 -15 -25 -15 -26 0
-34 15 -12 23 23 10 37 7 37 -8z m830 7 c0 -15 -132 -112 -152 -112 -16 0 -8
28 10 34 9 3 31 15 47 26 17 11 37 23 45 27 8 3 19 12 23 20 9 14 27 18 27 5z
m285 -19 c-24 -17 -35 -17 -35 1 0 8 8 16 18 19 27 6 37 -5 17 -20z m-786 0
c-11 -13 -11 -17 -1 -20 13 -5 17 -33 5 -33 -16 0 -31 48 -20 59 18 18 31 13
16 -6z m91 -5 c0 -13 -23 -5 -28 10 -2 7 2 10 12 6 9 -3 16 -11 16 -16z m80 1
c11 -19 10 -20 -9 -9 -12 6 -21 15 -21 20 0 18 19 11 30 -11z m160 11 c0 -5
-7 -10 -16 -10 -8 0 -12 5 -9 10 3 6 10 10 16 10 5 0 9 -4 9 -10z m1147 4 c-3
-3 -12 -4 -19 -1 -8 3 -5 6 6 6 11 1 17 -2 13 -5z m178 -4 c-3 -5 -10 -10 -16
-10 -5 0 -9 5 -9 10 0 6 7 10 16 10 8 0 12 -4 9 -10z m88 3 c-7 -2 -19 -2 -25
0 -7 3 -2 5 12 5 14 0 19 -2 13 -5z m1292 -3 c-3 -5 -46 -10 -96 -10 -53 0
-89 4 -89 10 0 6 39 10 96 10 61 0 93 -4 89 -10z m-1620 -20 c3 -5 -3 -10 -15
-10 -12 0 -18 5 -15 10 3 6 10 10 15 10 5 0 12 -4 15 -10z m154 -11 c-8 -5
-34 -9 -59 -8 -42 0 -43 1 -22 12 25 15 103 10 81 -4z m1995 0 c35 -20 47 -39
26 -39 -14 0 -70 42 -70 52 0 12 5 10 44 -13z m-3964 1 c0 -5 -4 -10 -9 -10
-6 0 -13 5 -16 10 -3 6 1 10 9 10 9 0 16 -4 16 -10z m250 5 c0 -3 -9 -14 -20
-25 -29 -29 -48 -25 -20 5 22 23 40 32 40 20z m421 -15 c-24 -21 -41 -26 -41
-12 0 15 24 32 45 32 19 -1 19 -1 -4 -20z m469 10 c0 -5 -4 -10 -10 -10 -5 0
-10 5 -10 10 0 6 5 10 10 10 6 0 10 -4 10 -10z m2412 -1 c-15 -6 -30 -5 -40 1
-13 7 -8 9 23 9 35 0 37 -1 17 -10z m228 -5 c0 -2 -15 -4 -32 -4 -23 0 -29 3
-19 9 12 8 51 4 51 -5z m89 -1 c0 -11 -3 -13 -6 -5 -2 6 -9 10 -14 6 -5 -3 -9
0 -9 5 0 6 7 11 15 11 8 0 15 -8 14 -17z m-3725 -1 c2 -4 1 -14 -4 -21 -6 -11
-10 -9 -19 8 -10 17 -9 21 3 21 8 0 17 -4 20 -8z m392 -11 c16 -12 21 -22 14
-26 -12 -7 -50 21 -50 37 0 13 10 10 36 -11z m544 15 c0 -11 -19 -15 -25 -6
-3 5 1 10 9 10 9 0 16 -2 16 -4z m315 -6 c3 -5 1 -10 -4 -10 -6 0 -11 5 -11
10 0 6 2 10 4 10 3 0 8 -4 11 -10z m450 -10 c-7 -12 -91 -24 -105 -15 -22 13
12 26 53 19 25 -4 37 -2 37 6 0 6 5 8 10 5 6 -4 8 -10 5 -15z m-2085 0 c0 -5
-7 -10 -15 -10 -8 0 -15 5 -15 10 0 6 7 10 15 10 8 0 15 -4 15 -10z m200 6 c0
-3 -4 -8 -10 -11 -5 -3 -10 -1 -10 4 0 6 5 11 10 11 6 0 10 -2 10 -4z m378
-10 c-22 -16 -23 -36 -3 -36 8 0 15 -7 15 -15 0 -19 -2 -19 -30 5 -22 19 -23
21 -5 40 10 11 23 20 29 20 6 0 3 -7 -6 -14z m987 4 c3 -5 -3 -10 -14 -10 -12
0 -21 5 -21 10 0 6 6 10 14 10 8 0 18 -4 21 -10z m-75 -8 c0 -11 -56 -43 -63
-35 -3 3 4 14 16 24 23 19 47 25 47 11z m2665 -2 c3 -5 -1 -10 -9 -10 -8 0
-18 5 -21 10 -3 6 1 10 9 10 8 0 18 -4 21 -10z m-4207 -31 c-10 -6 -18 -17
-18 -25 0 -11 -8 -14 -27 -12 -27 3 -46 28 -20 28 8 0 24 9 37 20 17 15 27 17
34 10 8 -8 6 -14 -6 -21z m1932 17 c41 -13 43 -14 20 -20 -30 -8 -84 9 -75 24
3 5 7 10 8 10 1 0 22 -6 47 -14z m-1580 -26 c0 -18 -19 -11 -30 11 -11 19 -10
20 9 9 12 -6 21 -15 21 -20z m-310 -10 c-12 -12 -25 -19 -28 -15 -4 3 4 15 18
25 32 24 38 18 10 -10z m860 20 c0 -5 -3 -10 -8 -10 -4 0 -23 -14 -41 -31 -18
-16 -36 -27 -39 -24 -7 6 67 75 80 75 4 0 8 -4 8 -10z m3434 -15 c3 -8 1 -17
-5 -21 -12 -7 -15 -5 -23 23 -6 18 -4 22 8 17 8 -3 17 -12 20 -19z m-4771 6
c16 -2 2 -17 -90 -100 -51 -45 -97 -79 -103 -76 -5 3 -10 2 -10 -3 0 -5 -18
-27 -41 -49 -36 -36 -45 -40 -78 -36 -20 3 -61 -2 -91 -11 -53 -16 -160 -22
-160 -10 0 13 76 100 168 192 78 78 96 91 108 81 11 -9 20 -9 37 -1 12 6 38
13 57 14 29 3 176 2 203 -1z m1177 -16 c14 -19 14 -19 -2 -6 -10 7 -18 18 -18
24 0 6 1 8 3 6 1 -2 9 -13 17 -24z m-570 11 c0 -3 -4 -8 -10 -11 -5 -3 -10 -1
-10 4 0 6 5 11 10 11 6 0 10 -2 10 -4z m1560 -5 l25 -7 -24 -8 c-16 -6 -28 -3
-39 8 -18 18 -8 20 38 7z m95 -1 c-3 -5 -21 -10 -38 -9 -27 0 -29 2 -12 9 28
12 57 12 50 0z m-640 -10 c3 -5 -1 -10 -9 -10 -9 0 -16 5 -16 10 0 6 4 10 9
10 6 0 13 -4 16 -10z m-1457 -6 c29 -8 28 -18 -7 -41 -34 -21 -154 -126 -190
-165 -21 -25 -32 -28 -83 -28 -32 0 -58 4 -58 10 0 6 5 10 11 10 9 0 54 39
119 103 15 15 30 27 34 27 8 0 51 37 85 72 17 17 51 22 89 12z m657 -4 c3 -5
-1 -10 -9 -10 -9 0 -16 5 -16 10 0 6 4 10 9 10 6 0 13 -4 16 -10z m590 0 c3
-5 -1 -10 -10 -10 -9 0 -13 5 -10 10 3 6 8 10 10 10 2 0 7 -4 10 -10z m555 0
c0 -5 -9 -10 -20 -10 -11 0 -20 5 -20 10 0 6 9 10 20 10 11 0 20 -4 20 -10z
m-1006 -25 c-4 -8 -14 -15 -23 -15 -14 1 -13 3 3 15 25 19 27 19 20 0z m616
-1 c0 -10 -7 -14 -22 -12 -32 5 -35 28 -4 28 17 0 26 -5 26 -16z m527 10 c-3
-3 -12 -4 -19 -1 -8 3 -5 6 6 6 11 1 17 -2 13 -5z m-1529 -31 c-17 -17 -54
-11 -43 7 4 6 10 8 14 6 4 -3 13 -1 21 4 21 13 26 2 8 -17z m652 23 c0 -3 -4
-8 -10 -11 -5 -3 -10 -1 -10 4 0 6 5 11 10 11 6 0 10 -2 10 -4z m142 -28 c-15
-15 -26 -4 -18 18 5 13 9 15 18 6 9 -9 9 -15 0 -24z m-1062 7 c7 -8 25 -15 41
-15 16 0 29 -5 29 -11 0 -6 -7 -8 -16 -5 -9 4 -22 2 -29 -4 -9 -8 -15 -8 -20
0 -3 5 -12 10 -19 10 -8 0 -13 -17 -14 -52 -1 -45 -5 -57 -31 -80 -28 -25 -29
-26 -8 -32 16 -4 19 -8 10 -17 -14 -14 -205 -1 -221 16 -6 6 117 125 130 125
4 0 22 12 40 28 65 53 88 61 108 37z m520 5 c0 -5 -5 -10 -11 -10 -5 0 -7 5
-4 10 3 6 8 10 11 10 2 0 4 -4 4 -10z m3980 0 c0 -5 -7 -10 -16 -10 -8 0 -12
5 -9 10 3 6 10 10 16 10 5 0 9 -4 9 -10z m50 -4 c0 -8 10 -22 22 -30 12 -9 19
-19 15 -22 -4 -4 -16 1 -26 10 -11 10 -24 15 -29 12 -7 -4 -10 29 -3 42 4 9
21 -1 21 -12z m-4195 -27 c5 -6 3 -9 -7 -9 -24 0 -48 11 -48 22 0 10 39 1 55
-13z m255 6 c0 -8 -4 -15 -10 -15 -5 0 -10 -9 -10 -20 0 -21 -15 -27 -25 -10
-7 11 23 60 36 60 5 0 9 -7 9 -15z m700 5 c0 -5 -2 -10 -4 -10 -3 0 -8 5 -11
10 -3 6 -1 10 4 10 6 0 11 -4 11 -10z m-430 -10 c0 -5 -2 -10 -4 -10 -3 0 -8
5 -11 10 -3 6 -1 10 4 10 6 0 11 -4 11 -10z m590 0 c-20 -13 -73 -13 -65 0 3
6 23 10 43 10 28 0 33 -3 22 -10z m-990 -8 c0 -4 -5 -13 -12 -20 -14 -14 -78
-16 -78 -2 0 6 13 10 29 10 17 0 33 5 36 10 7 12 25 13 25 2z m580 -7 c0 -18
31 -35 65 -35 15 0 24 -4 20 -10 -7 -12 -55 -13 -70 -2 -10 7 -35 48 -35 57 0
3 5 5 10 5 6 0 10 -7 10 -15z m-70 -15 c0 -5 -2 -10 -4 -10 -3 0 -8 5 -11 10
-3 6 -1 10 4 10 6 0 11 -4 11 -10z m355 0 c-3 -5 -41 -10 -83 -10 -53 0 -72 3
-62 10 20 13 153 13 145 0z m-1115 -26 c0 -2 -12 -4 -26 -4 -14 0 -23 4 -20 9
6 8 46 4 46 -5z m734 1 c-7 -17 -30 -20 -39 -6 -4 8 9 15 37 20 4 0 5 -6 2
-14z m-946 -7 c-6 -18 -28 -21 -28 -4 0 9 7 16 16 16 9 0 14 -5 12 -12z m122
6 c0 -10 -50 -54 -61 -54 -5 0 0 14 13 30 19 27 48 41 48 24z m410 -10 c0 -8
-4 -12 -10 -9 -5 3 -10 10 -10 16 0 5 5 9 10 9 6 0 10 -7 10 -16z m90 2 c0
-16 -14 -36 -26 -36 -16 0 -16 2 -8 24 5 14 34 24 34 12z m-337 -20 c18 -8 43
-16 56 -18 14 -2 26 -9 29 -15 5 -17 -50 -6 -100 19 -59 29 -44 41 15 14z
m592 8 c27 -11 -3 -24 -52 -24 -53 0 -57 17 -5 23 20 2 38 4 39 5 1 1 9 -1 18
-4z m-375 -19 c-7 -8 -16 -15 -21 -15 -5 0 -6 7 -3 15 4 8 13 15 21 15 13 0
13 -3 3 -15z m-342 -7 c-6 -18 -28 -21 -28 -4 0 9 7 16 16 16 9 0 14 -5 12
-12z m286 -4 c16 -6 23 -34 8 -34 -10 0 -32 22 -32 32 0 10 3 10 24 2z m296
-2 c0 -36 -77 -74 -150 -76 -72 -2 -64 19 9 22 65 3 111 23 111 48 0 8 7 14
15 14 8 0 15 -4 15 -8z m-620 -22 c0 -5 -4 -10 -10 -10 -5 0 -10 5 -10 10 0 6
5 10 10 10 6 0 10 -4 10 -10z m405 0 c3 -5 1 -10 -4 -10 -6 0 -11 5 -11 10 0
6 2 10 4 10 3 0 8 -4 11 -10z m105 0 c0 -5 -4 -10 -10 -10 -5 0 -10 5 -10 10
0 6 5 10 10 10 6 0 10 -4 10 -10z m-568 -14 c20 -14 14 -26 -13 -26 -17 0 -32
23 -22 34 9 9 16 7 35 -8z m342 -5 c3 -4 3 -11 0 -14 -8 -8 -34 3 -34 14 0 11
27 12 34 0z m-444 -11 c0 -5 -4 -10 -10 -10 -5 0 -10 5 -10 10 0 6 5 10 10 10
6 0 10 -4 10 -10z m190 -30 c0 -21 -15 -27 -25 -10 -7 12 2 30 16 30 5 0 9 -9
9 -20z m-120 0 c0 -5 -8 -10 -18 -10 -10 0 -23 -5 -29 -11 -7 -7 -19 -9 -29
-5 -29 11 1 28 64 35 6 0 12 -3 12 -9z m410 -7 c0 -2 -12 -8 -27 -14 -27 -10
-94 -2 -75 10 11 6 102 11 102 4z m-875 -22 c3 -5 0 -13 -5 -16 -6 -4 -16 -17
-21 -28 -5 -12 -18 -35 -28 -52 -27 -42 -26 -62 5 -69 33 -9 25 -32 -9 -28
-19 2 -27 -1 -27 -12 0 -9 -8 -16 -18 -16 -16 0 -56 -29 -103 -75 -9 -8 -20
-15 -26 -15 -5 0 -18 -9 -28 -20 -10 -11 -24 -20 -32 -20 -7 0 -13 -7 -13 -15
0 -8 -9 -15 -20 -15 -11 0 -20 -6 -20 -14 0 -8 -10 -16 -22 -18 -28 -4 -36
-28 -9 -28 11 0 25 9 31 20 6 11 17 20 25 20 8 0 15 5 15 10 0 6 9 10 21 10
12 0 23 8 26 20 6 21 28 27 38 10 3 -5 -5 -15 -19 -22 -14 -6 -26 -15 -26 -20
0 -4 -9 -8 -19 -8 -10 0 -21 -7 -24 -14 -3 -8 -31 -27 -61 -41 -31 -15 -56
-33 -56 -41 0 -17 -14 -18 -41 -3 -18 9 -19 7 -13 -15 6 -26 -8 -36 -21 -16
-10 16 -35 12 -35 -6 0 -9 -8 -18 -19 -21 -24 -6 -43 -47 -35 -77 4 -16 -7
-43 -38 -92 -50 -80 -75 -107 -89 -98 -6 3 -25 -1 -42 -11 -31 -16 -32 -19
-33 -83 0 -63 -2 -67 -39 -99 -45 -39 -53 -40 -59 -10 -2 12 -10 45 -16 72
-21 88 -24 162 -6 187 9 12 16 29 16 38 0 8 14 44 31 80 18 36 35 72 39 80 4
8 19 37 33 63 15 26 27 55 27 64 0 9 34 49 76 89 l77 73 39 -30 c37 -30 38
-32 23 -53 -8 -11 -19 -30 -24 -41 -5 -11 -24 -42 -43 -70 -19 -27 -38 -57
-42 -65 -8 -17 -21 -39 -59 -97 -15 -24 -27 -45 -27 -48 0 -3 -12 -24 -26 -47
l-27 -42 23 -18 c15 -12 26 -15 34 -9 10 9 35 54 50 91 4 8 20 38 36 65 17 28
36 60 42 73 6 12 15 22 20 22 4 0 8 6 8 13 0 12 9 26 50 74 5 7 10 18 10 25 1
19 46 71 57 65 4 -3 17 1 28 9 16 12 17 18 8 33 -15 24 -6 36 38 50 20 6 41
22 47 34 13 29 59 81 153 179 l77 78 55 0 c31 0 58 -4 62 -9z m218 -26 c66 -7
69 -21 5 -23 -43 0 -138 -44 -138 -63 0 -5 -10 -9 -23 -9 -12 0 -28 -9 -35
-20 -7 -11 -17 -20 -22 -20 -16 0 -12 37 5 44 8 3 15 12 15 21 0 18 27 64 47
81 9 8 27 9 51 4 20 -4 63 -11 95 -15z m507 15 c0 -5 -18 -10 -41 -10 -24 0
-38 4 -34 10 3 6 22 10 41 10 19 0 34 -4 34 -10z m-991 -17 c-7 -10 -20 -25
-29 -35 -34 -36 -67 -83 -96 -137 -26 -48 -34 -56 -56 -53 -19 2 -30 -4 -38
-19 -10 -18 -14 -19 -28 -6 -9 8 -25 17 -34 20 -22 8 -14 29 15 42 12 6 22 17
22 25 0 21 -58 25 -75 6 -13 -16 -42 -21 -53 -9 -10 10 13 33 34 33 10 0 21
10 25 23 4 12 18 39 33 60 19 27 31 36 46 33 10 -3 26 1 35 9 10 9 45 15 100
18 47 1 91 4 99 5 11 2 11 -1 0 -15z m842 -3 c5 0 9 -4 9 -10 0 -5 -16 -10
-35 -10 -31 0 -34 2 -23 15 7 8 19 12 26 10 8 -3 18 -5 23 -5z m1804 -26 c159
-20 303 -48 415 -80 105 -31 245 -78 254 -86 6 -4 2 -15 -8 -27 -10 -11 -16
-31 -14 -46 2 -23 16 -34 88 -71 47 -24 91 -44 97 -44 7 0 31 -8 53 -17 41
-18 43 -24 31 -78 l-7 -30 -40 42 c-74 78 -231 138 -340 129 -141 -12 -211
-29 -326 -79 -181 -80 -334 -243 -341 -364 -2 -37 -1 -38 33 -36 38 2 60 24
60 60 0 41 60 136 122 194 105 99 279 169 417 169 129 0 218 -36 294 -121 l53
-58 37 11 c20 6 39 9 41 7 3 -3 10 -67 15 -144 6 -77 16 -175 22 -218 14 -93
8 -106 -43 -88 -42 15 -173 32 -259 33 -145 1 -285 -21 -374 -61 -128 -57
-212 -106 -277 -161 -20 -17 -23 -42 -7 -68 9 -14 2 -32 -38 -97 -27 -44 -64
-113 -83 -152 -39 -82 -31 -79 -157 -61 -72 10 -95 10 -162 -4 -43 -9 -102
-28 -132 -41 -30 -13 -69 -29 -87 -35 -31 -10 -33 -9 -52 28 -11 22 -20 45
-20 53 0 7 -11 37 -25 65 -14 29 -25 54 -25 57 0 3 -8 18 -19 33 -10 15 -39
59 -64 97 -72 110 -235 261 -320 296 -35 14 -36 15 -87 57 -40 32 -175 122
-184 122 -3 0 -28 14 -54 30 -27 17 -55 30 -62 30 -8 0 -21 6 -29 13 -19 16
-163 65 -234 79 -83 16 -315 21 -377 8 -181 -39 -353 -128 -428 -221 -13 -17
-62 -47 -110 -70 -48 -22 -94 -47 -104 -55 -10 -10 -18 -11 -22 -5 -9 15 11
95 25 100 26 8 59 55 59 83 0 15 4 36 9 46 5 9 24 47 41 84 40 87 166 216 271
278 226 134 331 168 464 149 83 -11 192 -59 249 -110 36 -31 38 -32 76 -19 24
8 40 19 40 29 0 41 -197 151 -270 151 -14 0 -32 4 -40 10 -16 10 -20 8 65 33
28 8 86 22 130 32 44 10 107 24 141 31 33 8 71 14 84 14 13 0 37 4 54 9 17 6
78 17 136 26 58 8 148 22 200 30 356 54 852 66 1145 29z m-1980 -3 c6 -1 6 -4
0 -10 -13 -11 -77 -2 -69 10 3 5 18 7 32 5 15 -2 31 -5 37 -5z m91 -6 c-22
-16 -46 -20 -46 -7 0 15 13 22 39 22 25 -1 25 -1 7 -15z m-106 -29 c0 -11 -19
-15 -25 -6 -3 5 1 10 9 10 9 0 16 -2 16 -4z m-80 -21 c-14 -16 -60 -21 -60 -6
0 10 22 18 54 20 15 1 16 -2 6 -14z m-214 -40 c-4 -10 2 -19 17 -25 25 -10 13
-13 -20 -4 -19 5 -21 10 -12 25 12 23 24 25 15 4z m98 -6 c-27 -11 -44 -11
-44 0 0 11 40 20 54 12 5 -2 1 -8 -10 -12z m-977 -10 c21 -12 42 -23 46 -26 4
-3 1 -16 -8 -30 -21 -31 -13 -53 19 -53 16 0 27 7 31 20 6 19 25 26 37 14 6
-5 -201 -214 -212 -214 -3 0 -11 -13 -18 -30 -8 -16 -19 -30 -27 -30 -28 0 6
174 60 305 7 17 15 38 19 48 7 21 7 21 53 -4z m843 -35 c0 -9 -7 -14 -17 -12
-10 1 -29 -5 -43 -15 -13 -9 -34 -17 -45 -16 -16 0 -14 3 8 11 15 5 27 16 27
23 0 14 49 36 63 28 4 -2 7 -11 7 -19z m-140 -64 c0 -5 -7 -10 -15 -10 -8 0
-15 5 -15 10 0 6 7 10 15 10 8 0 15 -4 15 -10z m-50 -14 c0 -3 -4 -8 -10 -11
-5 -3 -10 -1 -10 4 0 6 5 11 10 11 6 0 10 -2 10 -4z m-35 -36 c-3 -5 -10 -10
-16 -10 -5 0 -9 5 -9 10 0 6 7 10 16 10 8 0 12 -4 9 -10z m-345 -260 c0 -5 -4
-10 -10 -10 -5 0 -10 5 -10 10 0 6 5 10 10 10 6 0 10 -4 10 -10z m-404 -46
c-4 -9 -9 -15 -11 -12 -3 3 -3 13 1 22 4 9 9 15 11 12 3 -3 3 -13 -1 -22z
m1419 -267 c114 -36 181 -67 300 -140 42 -26 136 -99 226 -177 51 -45 106 -84
121 -87 53 -10 174 -162 235 -293 74 -160 77 -174 38 -192 -32 -14 -27 -33 9
-34 14 -1 29 -4 32 -7 3 -3 10 -42 15 -86 11 -99 -2 -234 -31 -316 -12 -33
-24 -69 -27 -80 -14 -46 -117 -186 -178 -243 -129 -118 -251 -171 -454 -199
-118 -16 -133 -16 -270 1 -80 10 -166 22 -191 28 -103 24 -238 63 -292 84 -21
8 -57 21 -80 30 -156 60 -284 152 -371 267 -49 65 -117 191 -117 218 0 5 -6
31 -14 57 -31 103 -41 200 -41 397 0 197 0 201 27 258 67 142 202 254 388 322
86 32 113 49 126 82 16 38 78 77 173 110 58 19 82 22 196 19 82 -2 148 -9 180
-19z m-1220 -14 c-3 -16 -11 -32 -17 -38 -8 -7 -9 -4 -4 8 3 10 6 27 6 38 0
10 5 19 11 19 7 0 9 -10 4 -27z m-25 -112 c0 -23 -16 -36 -25 -21 -9 14 1 40
15 40 5 0 10 -9 10 -19z m-8 -95 c-9 -20 -10 -20 -17 6 -9 34 4 58 17 33 7
-11 7 -25 0 -39z m-82 13 c6 -11 10 -27 8 -36 -3 -15 -5 -15 -20 1 -19 19 -24
56 -8 56 5 0 14 -9 20 -21z m3935 -53 c89 -16 216 -56 279 -90 239 -127 405
-374 394 -584 -6 -116 -46 -193 -157 -302 -75 -74 -101 -92 -201 -141 -225
-111 -271 -122 -505 -122 -162 -1 -186 1 -239 21 -118 44 -195 108 -243 202
-56 111 -75 235 -53 340 6 25 14 65 19 90 13 64 35 121 90 231 54 108 146 255
181 287 64 60 284 94 435 68z m-3815 -6 c0 -5 -5 -10 -11 -10 -5 0 -7 5 -4 10
3 6 8 10 11 10 2 0 4 -4 4 -10z m-80 -10 c0 -5 -4 -10 -10 -10 -5 0 -10 -7
-10 -15 0 -8 -4 -15 -10 -15 -14 0 -13 18 3 35 14 17 27 19 27 5z m10 -91 c0
-10 -4 -19 -10 -19 -5 0 -10 12 -10 26 0 14 4 23 10 19 6 -3 10 -15 10 -26z
m20 -48 c0 -6 -4 -12 -8 -15 -5 -3 -9 1 -9 9 0 8 4 15 9 15 4 0 8 -4 8 -9z
m2853 -442 c73 -15 84 -28 68 -78 -49 -167 1 -411 111 -536 114 -130 329 -180
647 -150 172 15 256 28 333 51 26 8 54 14 62 14 8 0 30 6 48 14 18 8 71 30
118 50 47 20 90 36 97 36 7 0 14 -24 18 -57 3 -32 12 -103 20 -158 21 -148 31
-306 26 -395 -1 -11 -14 -26 -33 -36 -17 -9 -55 -38 -82 -64 -28 -26 -85 -63
-126 -83 -41 -20 -87 -47 -101 -59 -98 -86 -130 -121 -163 -185 -9 -18 -23
-33 -31 -33 -7 0 -44 14 -82 31 -77 34 -90 40 -153 64 -25 9 -58 23 -75 30
-63 29 -305 105 -332 105 -26 0 -74 -20 -133 -55 -15 -9 -37 -13 -56 -10 -17
3 -45 0 -63 -6 -31 -11 -35 -10 -75 30 -47 46 -79 52 -151 26 -47 -17 -81 -19
-90 -5 -10 16 -68 39 -105 41 -87 5 -99 1 -151 -52 l-50 -51 -107 -5 c-59 -2
-135 -11 -170 -19 -35 -7 -74 -14 -87 -14 -13 0 -38 -8 -57 -17 -18 -9 -45
-22 -60 -30 -14 -7 -49 -13 -78 -13 -94 0 -205 -44 -246 -99 -7 -8 -27 -15
-46 -15 -48 0 -112 52 -194 158 -112 146 -238 266 -316 304 -37 17 -78 32 -92
32 -13 0 -30 7 -37 16 -7 9 -38 33 -69 55 -80 55 -136 106 -127 115 4 4 17 3
30 -3 66 -31 99 -43 113 -43 9 0 37 -6 63 -14 132 -41 210 -52 424 -62 225
-10 415 21 589 96 379 163 588 477 588 881 0 96 3 129 13 129 6 0 39 13 72 29
103 50 190 61 298 40z m434 -1714 c3 -11 -127 -62 -192 -75 -144 -28 -199 -30
-720 -28 -472 3 -540 5 -540 18 0 10 12 16 40 18 22 1 69 9 105 17 39 8 153
16 280 19 118 3 312 11 430 18 229 12 286 13 365 3 35 -5 60 -2 85 9 38 17
141 18 147 1z m258 -57 c21 -33 23 -34 98 -69 60 -27 108 -75 126 -126 17 -48
29 -63 51 -63 19 0 56 -47 45 -58 -3 -3 -65 -7 -138 -7 -141 -1 -177 -10 -262
-65 -64 -40 -78 -48 -120 -69 -70 -33 -119 -49 -170 -55 -27 -4 -67 -15 -90
-26 -130 -63 -450 -75 -695 -26 -131 26 -175 37 -190 45 -9 5 -31 12 -50 16
-19 4 -41 11 -50 15 -8 5 -40 18 -70 30 -30 13 -68 33 -83 46 -24 21 -40 24
-105 24 l-77 1 -40 64 c-22 36 -43 65 -47 65 -5 0 -8 9 -8 20 0 13 7 20 20 20
11 0 38 11 59 24 38 24 39 24 239 19 111 -3 202 -9 202 -13 0 -4 -9 -17 -20
-30 -24 -28 -25 -43 -5 -64 25 -24 77 -29 244 -23 239 8 436 43 666 119 111
37 151 54 191 85 17 12 34 23 38 23 10 0 75 28 96 41 8 5 24 13 35 19 11 5 31
18 45 29 33 27 41 26 65 -11z"/>
<path d="M680 5300 c-13 -8 -12 -10 3 -10 9 0 17 5 17 10 0 12 -1 12 -20 0z"/>
<path d="M980 4840 c0 -5 5 -10 11 -10 5 0 7 5 4 10 -3 6 -8 10 -11 10 -2 0
-4 -4 -4 -10z"/>
<path d="M1657 3450 c-99 -18 -197 -85 -197 -136 0 -12 -16 -44 -34 -70 -58
-82 -79 -131 -79 -189 0 -66 21 -97 88 -132 46 -24 60 -26 169 -26 65 1 130
-2 145 -7 41 -12 149 9 217 41 70 33 128 91 142 142 18 63 -30 199 -90 255
-38 36 -115 94 -148 112 -29 15 -152 21 -213 10z"/>
<path d="M4370 3411 c-84 -4 -134 -11 -151 -21 -60 -35 -109 -78 -138 -122
-28 -42 -31 -55 -31 -123 0 -97 23 -178 55 -199 46 -30 118 -16 235 48 30 16
66 35 80 42 60 31 109 110 110 175 0 14 7 34 15 45 9 12 14 43 15 85 0 61 -2
67 -22 73 -13 3 -27 5 -33 4 -5 -1 -66 -4 -135 -7z"/>
<path d="M3545 2171 c-10 -10 -39 -18 -160 -47 -115 -27 -301 -45 -551 -51
-246 -6 -252 -7 -305 -33 -30 -14 -55 -34 -57 -44 -3 -16 14 -17 290 -13 161
3 300 6 308 7 269 30 443 69 583 129 34 15 47 26 47 41 0 18 -6 20 -73 20 -40
0 -77 -4 -82 -9z"/>
</g>
</svg>
